<?xml version="1.0" encoding="utf-8"?>
<svg xmlns="http://www.w3.org/2000/svg" viewBox="104.6887 10.8086 408.6161 321.7244" width="408.616px" height="321.724px" preserveAspectRatio="none" xmlns:bx="https://boxy-svg.com"><defs/><g id="Layer_1" transform="matrix(1, 0, 0, 1, 79.41898345947266, -21.09566879272458)"><g transform="matrix(1, 0, 0, 1, 39.323666, -124.426804)"><g style="" transform="matrix(0.853154, 0, 0, 0.853154, -1.220865, 103.384338)"><rect x="332.814" y="312.627" class="st0" width="31.63" height="125.03" style="stroke-width: 0px; stroke-opacity: 0;"/></g><g style="" transform="matrix(0.508287, 0, 0, 0.853154, 131.041901, 103.384338)"><rect x="371.92" y="314.13" class="st2" width="59.43" height="125.03" style="stroke-width: 0px; stroke-opacity: 0;"/></g><g style="" transform="matrix(0.437249, 0, 0, 0.853154, 44.834709, 103.384338)"><rect x="173.25" y="314.13" class="st0" width="59.43" height="125.03" style=""/><g/></g><g style="" transform="matrix(0.451532, 0, 0, 0.853154, 37.419678, 102.743591)"><rect x="261.956" y="314.881" class="st2" width="59.43" height="125.03" style=""/></g><g style="" transform="matrix(0.853154, 0, 0, 0.853154, -27.220865, 103.384338)"><path class="st3" d="M 343.45 397.76 C 328.29 397.76 313.54 392.37 301.94 382.76 C 290.35 392.31 275.65 397.66 260.54 397.66 C 252.97 397.66 245.5 396.34 238.33 393.73 C 220.87 387.38 206.99 373.76 200.18 356.64 C 199.18 356.69 198.17 356.71 197.17 356.71 C 174 356.71 152.42 344.26 140.85 324.23 C 129.21 304.06 129.32 279.45 140.67 259.55 C 123.28 244.73 114.8 221.68 118.83 198.81 C 122.88 175.82 139.18 156.72 160.97 148.9 C 164.08 135.06 171.64 122.6 182.58 113.41 C 194.26 103.61 209.08 98.21 224.3 98.21 C 231.76 98.21 239.22 99.51 246.24 102.01 C 257.81 82.31 279.05 69.95 302.27 69.95 C 325.56 69.95 346.82 82.36 358.38 102.14 C 365.35 99.67 372.76 98.39 380.17 98.39 C 395.4 98.39 410.21 103.79 421.89 113.59 C 432.88 122.81 440.45 135.33 443.54 149.24 C 465.21 157.1 481.43 176.18 485.47 199.08 C 489.51 222.01 480.98 245.1 463.51 259.92 C 474.78 279.79 474.87 304.36 463.26 324.46 C 451.69 344.5 430.11 356.94 406.94 356.94 L 406.94 356.94 C 406.94 356.94 404.82 356.91 403.75 356.86 C 396.91 373.92 383.05 387.48 365.65 393.81 C 358.5 396.44 351.02 397.76 343.45 397.76 Z" style="fill: rgb(255, 255, 255); stroke-width: 0px;"/><g><path class="st1" d="M302.27,77.85c23.47,0,43.63,14.17,52.4,34.42c7.97-3.97,16.72-5.98,25.5-5.98 c12.94,0,25.96,4.38,36.65,13.35c11.22,9.42,17.9,22.23,19.81,35.68c20.58,5.68,37.12,22.71,41.07,45.13 c4.08,23.12-6.38,45.43-24.8,57.58c13.08,17.71,15.25,42.2,3.53,62.48c-10.57,18.31-29.75,28.54-49.48,28.54 c-2.87,0-5.75-0.22-8.62-0.66c-4.85,16.99-17.49,31.5-35.37,38.01c-6.44,2.34-13.03,3.46-19.51,3.46 c-15.71,0-30.76-6.53-41.5-17.88c-10.73,11.29-25.75,17.79-41.41,17.79c-6.48,0-13.07-1.11-19.51-3.46 c-17.92-6.52-30.57-21.09-35.4-38.13c-2.82,0.42-5.65,0.63-8.46,0.63c-19.72,0-38.91-10.23-49.48-28.54 c-11.74-20.33-9.54-44.87,3.61-62.59c-18.35-12.17-28.76-34.44-24.69-57.51c3.97-22.49,20.59-39.56,41.26-45.18 c1.94-13.39,8.61-26.15,19.79-35.54c10.69-8.97,23.71-13.35,36.65-13.35c8.82,0,17.62,2.04,25.62,6.04 C258.72,91.97,278.84,77.85,302.27,77.85 M302.27,62.06c-23.9,0-45.91,11.67-59.41,30.66c-6.05-1.58-12.3-2.4-18.56-2.4 c-17.08,0-33.7,6.05-46.8,17.04c-11.17,9.37-19.2,21.79-23.18,35.65c-9.4,4-17.89,9.94-24.92,17.49 c-9.56,10.28-15.91,23.05-18.35,36.92c-4.15,23.53,3.52,47.23,19.87,63.81c-9.77,21.21-8.89,46.17,3.09,66.92 c12.62,21.86,35.87,35.67,61.05,36.4c8.22,16.83,22.73,30.08,40.57,36.58c8.04,2.93,16.42,4.41,24.91,4.41 c14.82,0,29.3-4.6,41.39-12.91c12.12,8.38,26.65,13.01,41.53,13.01c8.49,0,16.87-1.48,24.91-4.41 c17.78-6.47,32.26-19.67,40.5-36.42c25.25-0.67,48.59-14.49,61.25-36.41c11.95-20.69,12.85-45.58,3.16-66.76 c16.44-16.59,24.15-40.34,19.99-63.94c-2.44-13.83-8.76-26.57-18.27-36.84c-6.98-7.53-15.43-13.48-24.78-17.49 c-3.96-13.93-12.01-26.42-23.24-35.84c-13.1-10.99-29.72-17.04-46.8-17.04c-6.2,0-12.4,0.8-18.39,2.36 C348.29,73.78,326.24,62.06,302.27,62.06L302.27,62.06z" style="stroke-width: 0px; stroke-opacity: 0.79; paint-order: stroke; stroke: rgb(0, 0, 0);"/></g></g><g class="face"><title>face</title><g style="" transform="matrix(0.853154, 0, 0, 0.853154, -27.220865, 103.384338)"><g style="" class="left-ear"><title>left-ear</title><path class="st0" d="M48.16,239.21c-13.55,0-19.65-5.63-22.38-10.36c-2.7-4.67-5.53-14.77,5.77-29.93 c7-9.39,17.97-18.66,30.87-26.11c15.49-8.94,31.7-14.07,44.48-14.07c13.55,0,19.65,5.63,22.38,10.36 c2.7,4.67,5.53,14.77-5.77,29.92c-7,9.39-17.96,18.66-30.87,26.11C77.14,234.08,60.93,239.21,48.16,239.21 C48.16,239.21,48.16,239.21,48.16,239.21z" style=""/><path class="st1" d="M106.9,166.64c7.44,0,13.04,2.09,15.54,6.41c6.16,10.67-8.95,30.93-33.75,45.25 c-14.75,8.52-29.61,13.02-40.53,13.02c-7.44,0-13.04-2.09-15.54-6.41c-6.16-10.67,8.95-30.93,33.75-45.25 C81.13,171.13,95.99,166.64,106.9,166.64 M106.9,150.85c-14.12,0-31.77,5.51-48.42,15.13c-13.81,7.97-25.62,18-33.25,28.23 c-14.01,18.78-9.95,32.24-6.28,38.59c3.08,5.34,10.98,14.31,29.21,14.31c14.12,0,31.77-5.51,48.42-15.13 c13.81-7.97,25.62-18,33.25-28.23c14.01-18.78,9.95-32.24,6.28-38.59C133.03,159.81,125.13,150.85,106.9,150.85L106.9,150.85z" style=""/></g><g style="" class="right-ear"><title>right-ear</title><path class="st0" d="M268.32,239.21c-12.77,0-28.99-5.13-44.48-14.07c-12.9-7.45-23.87-16.72-30.87-26.11 c-11.3-15.16-8.47-25.25-5.77-29.93c2.73-4.73,8.83-10.36,22.38-10.36c12.77,0,28.99,5.13,44.48,14.07 c12.9,7.45,23.87,16.72,30.87,26.11c11.31,15.16,8.47,25.26,5.77,29.93C287.97,233.58,281.88,239.21,268.32,239.21z" style=""/><path d="M209.58,166.64c10.92,0,25.78,4.5,40.53,13.02c24.8,14.32,39.92,34.58,33.75,45.25 c-2.5,4.32-8.1,6.41-15.54,6.41c-10.92,0-25.78-4.5-40.53-13.02c-24.8-14.32-39.92-34.58-33.75-45.25 C196.54,168.72,202.14,166.64,209.58,166.64 M209.58,150.85L209.58,150.85c-18.23,0-26.13,8.96-29.21,14.31 c-3.67,6.35-7.73,19.81,6.28,38.59c7.63,10.23,19.44,20.25,33.25,28.23c16.66,9.62,34.3,15.13,48.42,15.13 c18.23,0,26.13-8.96,29.21-14.31c3.67-6.35,7.73-19.81-6.28-38.59c-7.63-10.23-19.44-20.25-33.25-28.23 C241.35,156.36,223.7,150.85,209.58,150.85L209.58,150.85z" style="stroke: rgb(0, 0, 0);" class="right-ear"/></g></g><g style="" transform="matrix(0.853154, 0, 0, 0.853154, -27.220865, 103.384338)"><ellipse class="st2" cx="158.24" cy="229.6" rx="79.73" ry="93.7" style=""/><g><path class="st1" d="M 158.24 143.8 C 197.92 143.8 230.08 182.22 230.08 229.61 C 230.08 277 197.92 315.42 158.24 315.42 C 118.56 315.42 86.4 276.99 86.4 229.6 C 86.4 182.21 118.57 143.8 158.24 143.8 M 158.24 128.01 C 134.3 128.01 111.96 138.94 95.34 158.8 C 79.4 177.84 70.62 202.99 70.62 229.61 C 70.62 256.23 79.4 281.38 95.34 300.42 C 111.96 320.27 134.3 331.21 158.24 331.21 C 182.18 331.21 204.52 320.28 221.14 300.42 C 229.005 291.026 235.126 280.144 239.31 268.333 C 243.607 256.205 245.86 243.096 245.86 229.61 C 245.86 202.99 237.08 177.84 221.14 158.8 C 204.52 138.94 182.18 128.01 158.24 128.01 Z" style="stroke: rgb(0, 0, 0);"/></g></g><g style="" transform="matrix(0.853154, 0, 0, 0.853154, -27.220865, 103.384338)"><path class="st3" d="M208.88,208.11c-10.9,0-21.5-3.86-29.85-10.88c-3.6-3.02-6.67-6.49-9.16-10.36 c-4.37,1.34-8.92,2.02-13.58,2.02c-4.7,0-9.28-0.69-13.68-2.05c-2.49,3.84-5.53,7.28-9.11,10.28 c-8.36,7.01-18.96,10.87-29.85,10.87c-13.79,0-26.77-6.05-35.62-16.6c-7.98-9.51-11.78-21.56-10.7-33.92s6.92-23.57,16.43-31.55 c8.35-7.01,18.95-10.87,29.84-10.87c4.64,0,9.28,0.71,13.71,2.06c8.48-13.06,23.08-21.17,38.98-21.17 c15.95,0,30.57,8.14,39.04,21.26c4.4-1.34,9-2.03,13.61-2.03c10.89,0,21.49,3.86,29.84,10.87c19.63,16.47,22.2,45.85,5.73,65.48 C235.65,202.06,222.67,208.11,208.88,208.11C208.88,208.11,208.88,208.11,208.88,208.11z" style="fill: rgb(255, 255, 255); stroke-width: 0px; stroke-opacity: 0.54; stroke: rgb(0, 0, 0);"/><g><path class="st1" d="M 156.28 103.83 C 172.15 103.83 185.77 113.41 191.7 127.1 C 197.09 124.42 203 123.06 208.94 123.06 C 217.69 123.06 226.48 126.02 233.71 132.08 C 250.03 145.78 252.16 170.11 238.47 186.44 C 230.84 195.54 219.91 200.22 208.89 200.22 C 200.14 200.22 191.34 197.26 184.11 191.19 C 179.35 187.19 175.8 182.29 173.5 176.95 C 168.32 179.54 156.29 181 156.29 181 C 150.07 181 144.21 179.52 139 176.91 C 136.69 182.22 133.16 187.1 128.42 191.07 C 121.19 197.14 112.39 200.1 103.64 200.1 C 92.63 200.1 81.7 195.41 74.06 186.32 C 60.36 170 62.49 145.66 78.82 131.96 C 86.05 125.9 94.84 122.94 103.59 122.94 C 109.55 122.94 115.5 124.32 120.9 127.02 C 126.85 113.38 140.45 103.83 156.28 103.83 M 156.28 88.05 C 139.64 88.05 124.22 95.64 114.05 108.17 C 110.61 107.5 107.1 107.15 103.59 107.15 C 90.85 107.15 78.44 111.67 68.67 119.87 C 45.7 139.14 42.7 173.5 61.97 196.47 C 72.33 208.81 87.52 215.89 103.64 215.89 C 116.39 215.89 128.79 211.37 138.57 203.17 C 141.25 200.92 143.68 198.46 145.85 195.79 C 149.26 196.45 152.74 196.79 156.29 196.79 C 159.79 196.79 163.24 196.46 166.61 195.82 C 168.79 198.52 171.25 201.02 173.96 203.29 C 183.74 211.49 196.14 216.01 208.89 216.01 C 225.01 216.01 240.2 208.93 250.56 196.59 C 269.83 173.62 266.82 139.26 243.86 119.99 C 234.09 111.79 221.69 107.27 208.94 107.27 C 205.47 107.27 202.01 107.61 198.6 108.26 C 188.43 95.67 172.98 88.05 156.28 88.05 Z" style="stroke: rgb(0, 0, 0);"/></g></g><g style="" transform="matrix(1.719907, 0, 0, 1.719907, -130.728516, -95.648186)"><title>eyes</title><g transform="matrix(1, 0, 0, 1, -5.711731, -8.853184)" style="" class="left-eye"><circle class="st1" cx="127.31" cy="237.52" r="7.89" style="fill: rgb(255, 255, 255);"/></g><g transform="matrix(1, 0, 0, 1, -31.128935, -8.853184)" style="" class="right-eye"><circle class="st1" cx="185.2" cy="237.52" r="7.89" style="fill: rgb(255, 255, 255);"/></g><g transform="matrix(0.393466, 0, 0, 0.393466, 71.506119, 135.594864)" style=""><circle class="st1" cx="127.31" cy="237.52" r="7.89" style=""/></g><g transform="matrix(0.393466, 0, 0, 0.393466, 81.201141, 135.210785)" style=""><circle class="st1" cx="185.2" cy="237.52" r="7.89" style=""/></g><path style="fill: none; stroke: rgb(255, 255, 255); stroke-width: 2.90713px;" d="M 130.069 261.018 C 133.326 267.868 146.322 265.902 146.062 261.017"><title>mouth</title></path></g></g></g></g></svg>