<?xml version="1.0" encoding="utf-8"?>
<svg xmlns="http://www.w3.org/2000/svg" viewBox="547.4742 198.117 155.0481 155.045" width="155.048px" height="155.045px" preserveAspectRatio="none"><g transform="matrix(3.6057694053639016, 0, 0, 3.6057694053639016, 538.4615357881413, 189.10256483799367)" id="object-2"><path d="m24 2.5-2.375 6.6875c0.77403-0.12337 1.5664-0.1875 2.375-0.1875s1.601 0.06413 2.375 0.1875l-2.375-6.6875zm-15.188 6.2812 3.0312 6.4375c0.93528-1.2902 2.0848-2.4397 3.375-3.375l-6.4062-3.0625zm30.406 0-6.4375 3.0625c1.2902 0.93528 2.4397 2.0848 3.375 3.375l3.0625-6.4375zm-30.031 12.812-6.6875 2.375 6.6875 2.375c-0.12016-0.76423-0.1875-1.5459-0.1875-2.3438 0-0.81938 0.06089-1.6224 0.1875-2.4062zm29.625 0.03125c0.12337 0.77403 0.1875 1.5664 0.1875 2.375s-0.06413 1.601-0.1875 2.375l6.6875-2.375-6.6875-2.375zm-26.969 11.156-3.0312 6.4062 6.4062-3.0312c-1.2902-0.93528-2.4397-2.0848-3.375-3.375zm24.312 0c-0.92646 1.278-2.0686 2.4136-3.3438 3.3438l6.4062 3.0625-3.0625-6.4062zm-14.531 6.0312 2.375 6.6875 2.375-6.6875c-0.77403 0.12337-1.5664 0.1875-2.375 0.1875s-1.601-0.06413-2.375-0.1875z" stroke-linecap="square" stroke-width=".73733" style="stroke: rgb(255, 202, 6); fill: rgb(255, 202, 6);" id="object-0"/><path transform="matrix(.77806 -1.0613 1.0613 .77806 67.48 3.6413)" d="m-22.5-17.5a9.5 9.5 0 1 1-19 0 9.5 9.5 0 1 1 19 0z" stroke-dasharray="0.75991078999999984, 0.75991078999999984" stroke-linecap="square" stroke-width=".75991" style="fill: rgb(255, 202, 6); stroke: rgb(255, 202, 6);" id="object-1"/></g></svg>